# xmcd CD database file
# Copyright (C) 1997 Ti Kan
# 
# Track frame offsets:
#     150
#     14792
#     30532
#     43245
#     62580
#     77640
#     90170
#     104010
#     119527
#     132437
#     146802
#     160787
#     173440
#     188747
#     210880
#     221342
#     236305
#     248047
#     261220
#     272582
# 
# Disc length: 3837 seconds
# 
# Revision: 1
# Processed by: cddbd v1.4b41PL1 Copyright (c) Steve Scherf et al.
# Submitted via: DiscPlay 4.0.4
# 
DISCID=0f0efb14
DTITLE=Various Artist - Sizzling Country Dancers - The Classic Linedance Collection
DTITLE=Disk 1
DYEAR=1900
DGENRE=
TTITLE0=Reba McEntire - Walk On
TTITLE1=Ed Bruce - In Mexico
TTITLE2=Conway Twitty - Tight Fittin' Jeans
TTITLE3=Gene Watson - You Waltzed Yourself Right Into My Life
TTITLE4=Mark Collie - Hard Lovin' Woman
TTITLE5=John Scheider - Trouble
TTITLE6=Ruth Ann - Could It Be Love
TTITLE7=Mark Chesnutt - Friends In Low Places
TTITLE8=Mark Collie - Keep It Up
TTITLE9=Marty Brown - Let's Begin Again
TTITLE10=James House - Beacause You're Mine
TTITLE11=Steve Earle - Nowhere Road
TTITLE12=Steve Wariner - She's Crazy For Leaving
TTITLE13=Reba McEntire - Fancy
TTITLE14=Gene Watson - Texas Saturday night
TTITLE15=McBride and The Ride - Hold On To Me And Let Go Of The Past
TTITLE16=Reba McEntire - Respect
TTITLE17=George Strait - My Old Flame Is Burnin' Another Honky Tonk Down
TTITLE18=Webb Pierce - Why Baby Why
TTITLE19=Mark Collie - Trouble's Coming Like A Train
EXTD=
EXTT0=
EXTT1=
EXTT2=
EXTT3=
EXTT4=
EXTT5=
EXTT6=
EXTT7=
EXTT8=
EXTT9=
EXTT10=
EXTT11=
EXTT12=
EXTT13=
EXTT14=
EXTT15=
EXTT16=
EXTT17=
EXTT18=
EXTT19=
PLAYORDER=
